# xmcd
#
# Track frame offsets:
#	150
#	22043
#	41480
#	62410
#	85105
#
# Disc length: 1521 seconds
#
# Revision: 0
# Processed by: cddbd v1.5.2PL0 Copyright (c) Steve Scherf et al.
# Submitted via: audiograbber 1.83.01
#
DISCID=3305ef05
DTITLE=Warren Haynes - Ashes and Dust: featuring Railroad Earth CD2
DYEAR=2015
DGENRE=Blues
TTITLE0=Company Man (demo)
TTITLE1=New Year's Eve (demo)
TTITLE2=Glory Road (demo)
TTITLE3=Wanderlust (demo)
TTITLE4=Hallelujah Boulevard (live from 12/28/2008)
EXTD=2-CD Deluxe Edition
EXTT0=
EXTT1=
EXTT2=
EXTT3=
EXTT4=
PLAYORDER=
